/* XPM */
static char *_9eba1f9f7ed4a1990b4c8e1f92242aaT5my8nTTpaezpRwP[] = {
/* columns rows colors chars-per-pixel */
"32 32 4 1 ",
"  c #071821",
". c #86C06C",
"X c #86C06C",
"o c #E0F8CF",
/* pixels */
"................................",
"................................",
"........              ..........",
"........              ..........",
"......  XXXXXXXXXXXXXX  ........",
"......  XXXXXXXXXXXXXX  ........",
"....  XXXXXXXXXXXXXXXXXX  ......",
"....  XXXXXXXXXXXXXXXXXX  ......",
"..  XXXXXXXXXXXXXXXXXXXXoo      ",
"..  XXXXXXXXXXXXXXXXXXXXoo      ",
"..  XXXXXXXXXXXXXXXXXXoooooooo  ",
"..  XXXXXXXXXXXXXXXXXXoooooooo  ",
"..    XX                      ..",
"..    XX                      ..",
"..      oooo  ooooooXXXXoo  ....",
"..      oooo  ooooooXXXXoo  ....",
"....    oooo    oooooo  oo  ....",
"....    oooo    oooooo  oo  ....",
"....  XX    XXXX    oooooo  ....",
"....  XX    XXXX    oooooo  ....",
"....  ooXXoo  XXXXXX    oo  ....",
"....  ooXXoo  XXXXXX    oo  ....",
"....  XX      XXXXXXXXXX      ..",
"....  XX      XXXXXXXXXX      ..",
"....    oooo    XXXXXXXXXXXXXX  ",
"....    oooo    XXXXXXXXXXXXXX  ",
"....    oooo  XX  XX    XXXX  ..",
"....    oooo  XX  XX    XXXX  ..",
"..                  XXXX  XX  ..",
"..                  XXXX  XX  ..",
"....        ....  XXXX      ....",
"....        ....  XXXX      ...."
};