/* XPM */
static char *_d161a18155a4e02bcb474b5d37ef70cP3CIya679uhvGOXU[] = {
/* columns rows colors chars-per-pixel */
"32 32 4 1 ",
"  c #071821",
". c #86C06C",
"X c #86C06C",
"o c #E0F8CF",
/* pixels */
"........              ..........",
"........              ..........",
"......  XXXXXXXXXXXXXX  ........",
"......  XXXXXXXXXXXXXX  ........",
"....  XXXXXXXXXXXXXXXXXX  ......",
"....  XXXXXXXXXXXXXXXXXX  ......",
"..  XXXXXXXXXXXXXXXXXXXXoo    ..",
"..  XXXXXXXXXXXXXXXXXXXXoo    ..",
"..  XXXXXXXXXXXXXXXXXXoooooooo  ",
"..  XXXXXXXXXXXXXXXXXXoooooooo  ",
"..    XX                        ",
"..    XX                        ",
"..      oooo  ooooooXXXXoo  ....",
"..      oooo  ooooooXXXXoo  ....",
"....    oooo    oooooo  oo  ....",
"....    oooo    oooooo  oo  ....",
"....  XX    XXXX    oooooo  ....",
"....  XX    XXXX    oooooo  ....",
"....  ooXXoo  XXXXXX    oo  ....",
"....  ooXXoo  XXXXXX    oo  ....",
"....  XXooXX  XXXX    XX    ....",
"....  XXooXX  XXXX    XX    ....",
"....    XXooXX    oooo  XXXX  ..",
"....    XXooXX    oooo  XXXX  ..",
"....    ooXXooXX  oooo  XXXXXX  ",
"....    ooXXooXX  oooo  XXXXXX  ",
"..  XXXX                XXXX  ..",
"..  XXXX                XXXX  ..",
"....  XXXX  ....            ....",
"....  XXXX  ....            ....",
"......    ......      ..........",
"......    ......      .........."
};
