/* XPM */
static char *_71317737b1840bcc6cb14595ead0467TaiDlrmD4rvSIXK5[] = {
/* columns rows colors chars-per-pixel */
"32 32 4 1 ",
"  c #071821",
". c #86C06C",
"X c #86C06C",
"o c #E0F8CF",
/* pixels */
"................................",
"................................",
"..........              ........",
"..........              ........",
"........  XXXXXXXXXXXXXX  ......",
"........  XXXXXXXXXXXXXX  ......",
"......  XXXXXXXXXXXXXXXXXX  ....",
"......  XXXXXXXXXXXXXXXXXX  ....",
"      ooXXXXXXXXXXXXXXXXXXXX  ..",
"      ooXXXXXXXXXXXXXXXXXXXX  ..",
"  ooooooooXXXXXXXXXXXXXXXXXX  ..",
"  ooooooooXXXXXXXXXXXXXXXXXX  ..",
"..                      XX    ..",
"..                      XX    ..",
"....  ooXXXXoooooo  oooo      ..",
"....  ooXXXXoooooo  oooo      ..",
"....  oo  oooooo    oooo    ....",
"....  oo  oooooo    oooo    ....",
"....  oooooo    XXXX    XX  ....",
"....  oooooo    XXXX    XX  ....",
"....  oo    XXXXXX  ooXXoo  ....",
"....  oo    XXXXXX  ooXXoo  ....",
"..      XXXXXXXXXX      XX  ....",
"..      XXXXXXXXXX      XX  ....",
"  XXXXXXXXXXXXXX    oooo    ....",
"  XXXXXXXXXXXXXX    oooo    ....",
"..  XXXX    XX  XX  oooo    ....",
"..  XXXX    XX  XX  oooo    ....",
"..  XX  XXXX                  ..",
"..  XX  XXXX                  ..",
"....      XXXX  ....        ....",
"....      XXXX  ....        ...."
};