/* XPM */
static char *result[] = {
/* columns rows colors chars-per-pixel */
"32 32 4 1 ",
"  c #071821",
". c #86C06C",
"X c #86C06C",
"o c #E0F8CF",
/* pixels */
"........    XXXXXXXXXXXX    ....",
"........    XXXXXXXXXXXX    ....",
"......  XXXXXXXXXXXXXXXXXXXX  ..",
"......  XXXXXXXXXXXXXXXXXXXX  ..",
"......  XXXXXXXXXXXXXXXXXXXX  ..",
"......  XXXXXXXXXXXXXXXXXXXX  ..",
"......  XXXXXXXXXXXXXXXXXXXX  ..",
"......  XXXXXXXXXXXXXXXXXXXX  ..",
"......  XXXXXXXX    XXXXXXXX  ..",
"......  XXXXXXXX    XXXXXXXX  ..",
"....  oo  XXXX        XXXX  oo  ",
"....  oo  XXXX        XXXX  oo  ",
"....  oo      XXXXXXXX      oo  ",
"....  oo      XXXXXXXX      oo  ",
"......    oooooooooooooooo    ..",
"......    oooooooooooooooo    ..",
"....  XX                    XX  ",
"....  XX                    XX  ",
"....      ooXXooXXooXXooXX      ",
"....      ooXXooXXooXXooXX      ",
"..  oooo  XXooXXooXXooXXoo      ",
"..  oooo  XXooXXooXXooXXoo      ",
"..  oooo  ooXXooXXooXX          ",
"..  oooo  ooXXooXXooXX          ",
"....                  XXXX  ....",
"....                  XXXX  ....",
"..........      ....  XXXX  ....",
"..........      ....  XXXX  ....",
"......................    ......",
"......................    ......",
"............            ........",
"............            ........"
};
