/* XPM */
static char *_39dad963d1c4a2bb7fefe6f6faf24bfsNXWXuGhIoyQuX7P[] = {
/* columns rows colors chars-per-pixel */
"32 32 4 1 ",
"  c #071821",
". c #86C06C",
"X c #86C06C",
"o c #E0F8CF",
/* pixels */
"..........              ........",
"..........              ........",
"........  XXXXXXXXXXXXXX  ......",
"........  XXXXXXXXXXXXXX  ......",
"......  XXXXXXXXXXXXXXXXXX  ....",
"......  XXXXXXXXXXXXXXXXXX  ....",
"..    ooXXXXXXXXXXXXXXXXXXXX  ..",
"..    ooXXXXXXXXXXXXXXXXXXXX  ..",
"  ooooooooXXXXXXXXXXXXXXXXXX  ..",
"  ooooooooXXXXXXXXXXXXXXXXXX  ..",
"                        XX    ..",
"                        XX    ..",
"....  ooXXXXoooooo  oooo      ..",
"....  ooXXXXoooooo  oooo      ..",
"....  oo  oooooo    oooo    ....",
"....  oo  oooooo    oooo    ....",
"....  oooooo    XXXX    XX  ....",
"....  oooooo    XXXX    XX  ....",
"....  oo    XXXXXX  ooXXoo  ....",
"....  oo    XXXXXX  ooXXoo  ....",
"....    XX    XXXX  XXooXX  ....",
"....    XX    XXXX  XXooXX  ....",
"..  XXXX  oooo    XXooXX    ....",
"..  XXXX  oooo    XXooXX    ....",
"  XXXXXX  oooo  XXooXXoo    ....",
"  XXXXXX  oooo  XXooXXoo    ....",
"..  XXXX                XXXX  ..",
"..  XXXX                XXXX  ..",
"....            ....  XXXX  ....",
"....            ....  XXXX  ....",
"..........      ......    ......",
"..........      ......    ......"
};

