/* XPM */
static char *ea9ad3eddc474e30d098903c2935b016c3nlxNBmxdQzU4cb[] = {
/* columns rows colors chars-per-pixel */
"32 32 4 1 ",
"  c #071821",
". c #86C06C",
"X c #86C06C",
"o c #E0F8CF",
/* pixels */
"............            ........",
"............            ........",
"........    XXXXXXXXXXXX    ....",
"........    XXXXXXXXXXXX    ....",
"......  XXXXXXXXXXXXXXXXXXXX  ..",
"......  XXXXXXXXXXXXXXXXXXXX  ..",
"......  XXXXXXXXXXXXXXXXXXXX  ..",
"......  XXXXXXXXXXXXXXXXXXXX  ..",
"......  XXXXooooooooooooXXXX  ..",
"......  XXXXooooooooooooXXXX  ..",
"......                        ..",
"......                        ..",
"....  oo  ooXXXXooooXXXXoo  oo  ",
"....  oo  ooXXXXooooXXXXoo  oo  ",
"....  oo  oooo  oooo  oooo  oo  ",
"....  oo  oooo  oooo  oooo  oo  ",
"......  XXooooooooooooooooXX  ..",
"......  XXooooooooooooooooXX  ..",
"....  XXXXXXooooooooooooXXXXXX  ",
"....  XXXXXXooooooooooooXXXXXX  ",
"....    XXXXXXXXooooXXXXXXXX    ",
"....    XXXXXXXXooooXXXXXXXX    ",
"..  oooo  XXXXXXXXXXXXXXXX      ",
"..  oooo  XXXXXXXXXXXXXXXX      ",
"..  oooo    XXXXXXXXXX          ",
"..  oooo    XXXXXXXXXX          ",
"....            XXXX  XXXX  ....",
"....            XXXX  XXXX  ....",
"..........            XXXX  ....",
"..........            XXXX  ....",
"......................    ......",
"......................    ......"
};
